<svg xmlns="http://www.w3.org/2000/svg" viewBox="0 0 260.01 51.41"><defs><style>.a{fill:#fff;}</style></defs><path class="a" d="M87.54,33.27c0,6.08-4.91,10.29-11,10.29H61.44V8.09h14c6,0,10.8,4.05,10.8,10a8.8,8.8,0,0,1-3.35,7.1A9,9,0,0,1,87.54,33.27ZM68.44,14.62v7.81h7a3.75,3.75,0,0,0,3.8-3.9,3.73,3.73,0,0,0-3.8-3.91ZM80.6,32.82a4,4,0,0,0-4.1-4.16H68.44V37H76.5A4,4,0,0,0,80.6,32.82Z"/><path class="a" d="M89.52,11.18a4,4,0,1,1,4,4A4,4,0,0,1,89.52,11.18Zm.76,7h6.54V43.56H90.28Z"/><path class="a" d="M99,30.89a13.41,13.41,0,1,1,13.38,13.38A13.24,13.24,0,0,1,99,30.89Zm20.27,0a6.87,6.87,0,1,0-13.73,0,6.87,6.87,0,1,0,13.73,0Z"/><path class="a" d="M127.54,25.82A18,18,0,0,1,146,7.38a17.65,17.65,0,0,1,15.25,8.36l-6,3.5A10.22,10.22,0,0,0,146,14.17c-6.94,0-11.51,4.81-11.51,11.65S139.05,37.43,146,37.43a10.24,10.24,0,0,0,9.22-5l6,3.5A17.53,17.53,0,0,1,146,44.27,18,18,0,0,1,127.54,25.82Z"/><path class="a" d="M189.67,18.22V43.56h-6.53v-3a10.11,10.11,0,0,1-8.26,3.7c-6.74,0-12.32-5.83-12.32-13.38s5.58-13.38,12.32-13.38a10.11,10.11,0,0,1,8.26,3.7v-3Zm-6.53,12.67a7,7,0,1,0-14,0,7,7,0,1,0,14,0Z"/><path class="a" d="M202.85,24.51V35.05c0,2.73,2,2.78,5.73,2.58v5.93c-9.18,1-12.27-1.67-12.27-8.51V24.51H191.9V18.22h4.41V13.1l6.54-2v7.09h5.73v6.29Z"/><path class="a" d="M209.59,30.89A13.09,13.09,0,0,1,223,17.51a12.76,12.76,0,0,1,11.35,6.54l-5.62,3.29A6.29,6.29,0,0,0,222.92,24a6.64,6.64,0,0,0-6.79,6.94,6.63,6.63,0,0,0,6.79,6.89,6.26,6.26,0,0,0,5.83-3.34l5.67,3.24a13.33,13.33,0,0,1-24.83-6.79Z"/><path class="a" d="M260,28V43.56h-6.53V28.81c0-3.44-2.08-5.22-5-5.22-3.19,0-5.57,1.88-5.57,6.29V43.56h-6.54V8.09h6.54v13c1.52-2.28,4.15-3.55,7.55-3.55C255.81,17.51,260,21.26,260,28Z"/><path class="a" d="M4.48,21.39a4.29,4.29,0,1,0,4.29,4.28A4.28,4.28,0,0,0,4.48,21.39Zm0,6.34a2.06,2.06,0,1,1,2.06-2.06A2.05,2.05,0,0,1,4.48,27.73Z"/><path class="a" d="M15,10.66A4.29,4.29,0,1,0,19.31,15,4.3,4.3,0,0,0,15,10.66ZM15,17a2.05,2.05,0,1,1,2-2.05A2.05,2.05,0,0,1,15,17Z"/><path class="a" d="M4.29,0A4.29,4.29,0,1,0,8.57,4.29,4.29,4.29,0,0,0,4.29,0Zm0,6.34a2.06,2.06,0,1,1,2.05-2A2.05,2.05,0,0,1,4.29,6.34Z"/><path class="a" d="M15,32.11a4.29,4.29,0,1,0,4.28,4.29A4.3,4.3,0,0,0,15,32.11Zm0,6.34a2.06,2.06,0,1,1,2-2.05A2.05,2.05,0,0,1,15,38.45Z"/><path class="a" d="M4.76,42.38a4.29,4.29,0,1,0,4.29,4.29A4.29,4.29,0,0,0,4.76,42.38Zm0,6.34a2.06,2.06,0,1,1,2.05-2A2.05,2.05,0,0,1,4.76,48.72Z"/><path class="a" d="M47.2,21.39a4.29,4.29,0,1,0,4.28,4.28A4.28,4.28,0,0,0,47.2,21.39Zm0,6.34a2.06,2.06,0,1,1,2-2.06A2.05,2.05,0,0,1,47.2,27.73Z"/><path class="a" d="M47.2,0a4.29,4.29,0,1,0,4.28,4.29A4.29,4.29,0,0,0,47.2,0Zm0,6.34a2.06,2.06,0,1,1,2-2A2.05,2.05,0,0,1,47.2,6.34Z"/><path class="a" d="M47.2,42.09a4.29,4.29,0,1,0,4.28,4.29A4.29,4.29,0,0,0,47.2,42.09Zm0,6.34a2.06,2.06,0,1,1,2-2A2.05,2.05,0,0,1,47.2,48.43Z"/><path class="a" d="M40.84,37.4c0-.06,0-.11,0-.17a3.49,3.49,0,0,0,.08-.86c0-.14,0-.27,0-.41s0-.07,0-.11a2.34,2.34,0,0,0,0-.26l0-.15-.06-.21a3.38,3.38,0,0,0-.11-.34.42.42,0,0,0,0-.1l0-.09-.07-.15,0,0a4.12,4.12,0,0,0-.83-1.15,4.55,4.55,0,0,0-.64-.52,4.25,4.25,0,0,0-2.39-.71h0a5.73,5.73,0,0,1-3.42-1.69l-2-2a3.66,3.66,0,0,1-1-2.69v-.13h0a5.73,5.73,0,0,1,1.69-3.42l2-2a3.64,3.64,0,0,1,2.69-1h.11l.24,0H37l.24,0,.13,0,.23-.05.09,0,.46-.14.08,0,.22-.1.11,0,.2-.12.09-.05a4.63,4.63,0,0,0,.82-.64l.06-.08a4.15,4.15,0,0,0,.27-.32l.12-.16c.08-.12.16-.24.23-.37a.54.54,0,0,0,.07-.13,3.13,3.13,0,0,0,.15-.32.36.36,0,0,0,0-.11l.06-.16a3.92,3.92,0,0,0,.13-.49s0,0,0,0a3.44,3.44,0,0,0,.08-.86h0v0c0-.12,0-.25,0-.37s0-.09,0-.14a1.57,1.57,0,0,0,0-.23l0-.16-.06-.24c0-.08,0-.17-.08-.25a1.34,1.34,0,0,1-.07-.18l0-.07-.06-.12L40.46,13l-.11-.19a.41.41,0,0,0-.05-.09,4,4,0,0,0-.65-.82A4,4,0,0,0,39,11.4a4.25,4.25,0,0,0-2.39-.71h0A5.71,5.71,0,0,1,33.21,9l-2-2a3.63,3.63,0,0,1-1-2.69v-.1A4.29,4.29,0,0,0,26.76.08,4.11,4.11,0,0,0,25.9,0a4.34,4.34,0,0,0-2.39.75,5.25,5.25,0,0,0-.62.53,4.24,4.24,0,0,0-1.23,3,4.25,4.25,0,0,0,1.28,3,4.48,4.48,0,0,0,.64.51A4.2,4.2,0,0,0,26,8.55h0a5.7,5.7,0,0,1,3.42,1.7l2,2a3.64,3.64,0,0,1,1,2.69V15h0a5.71,5.71,0,0,1-1.69,3.41l-2,2a3.64,3.64,0,0,1-2.69,1h-.11a4.28,4.28,0,0,0-3,1.28L22.7,23l-.08.09-.19.27-.11.17c-.08.13-.15.27-.22.41l-.09.19a.19.19,0,0,0,0,.07l-.09.23c0,.13-.07.25-.1.37l0,.12a4.11,4.11,0,0,0-.08.86h0v.05c0,.1,0,.21,0,.31a1.37,1.37,0,0,1,0,.19l0,.17a1.74,1.74,0,0,0,0,.22v0a4.15,4.15,0,0,0,.22.68A4.34,4.34,0,0,0,23,28.76a4.48,4.48,0,0,0,.64.51A4.2,4.2,0,0,0,26,30h0a5.75,5.75,0,0,1,3.42,1.7l2,2a3.66,3.66,0,0,1,1,2.69v.12h0a5.71,5.71,0,0,1-1.69,3.41l-2,2a3.6,3.6,0,0,1-2.69,1H26a4.26,4.26,0,0,0-4.16,3.45,4.11,4.11,0,0,0-.08.86,4.28,4.28,0,0,0,.75,2.38,4.65,4.65,0,0,0,.53.63,4.21,4.21,0,0,0,1.37.91,4.4,4.4,0,0,0,1.67.32,4.31,4.31,0,0,0,1.65-.35,4.57,4.57,0,0,0,1.36-.93,4.48,4.48,0,0,0,.51-.64,4.21,4.21,0,0,0,.71-2.4h0A5.7,5.7,0,0,1,32,43.68l2-2a3.69,3.69,0,0,1,2.69-1h.11a4.27,4.27,0,0,0,3-1.28,2.75,2.75,0,0,0,.22-.26l.06-.07c.08-.09.14-.19.21-.28l.08-.13a4.45,4.45,0,0,0,.26-.48s0-.1.07-.16,0,0,0-.05a2.67,2.67,0,0,0,.09-.26C40.79,37.61,40.81,37.5,40.84,37.4Z"/></svg>